<?xml version="1.0" encoding="utf-8"?>
<!-- Generator: Adobe Illustrator 24.1.2, SVG Export Plug-In . SVG Version: 6.00 Build 0)  -->
<svg version="1.1" id="Layer_1" xmlns="http://www.w3.org/2000/svg" xmlns:xlink="http://www.w3.org/1999/xlink" x="0px" y="0px"
	 viewBox="0 0 82.8 169.5" style="enable-background:new 0 0 82.8 169.5;" xml:space="preserve">
<style type="text/css">
	.st0{fill:#EAB896;}
	.st1{fill:#D29D79;}
	.st2{fill:#E1C0AB;}
	.st3{fill:#E2BFA8;}
	.st4{fill:#CAA287;}
	.st5{fill:#F7F5F4;}
	.st6{fill:#E8B694;}
	.st7{fill:#E6C4AD;}
	.st8{fill:#F0B790;}
	.st9{fill:#D7AA8B;}
	.st10{fill:#E0A882;}
	.st11{fill:#ECBC9B;}
	.st12{fill:#CF9770;}
	.st13{fill:#EABD9F;}
	.st14{fill:#EDD6C7;}
	.st15{fill:#DCAE8F;}
	.st16{fill:#E2B699;}
	.st17{fill:#F4ECE8;}
	.st18{fill:#E4BDA3;}
	.st19{fill:#EAD0C0;}
	.st20{fill:#EFDACD;}
	.st21{fill:#E1BCA3;}
	.st22{fill:#E1BFA9;}
	.st23{fill:#E0B496;}
	.st24{fill:#DCB79F;}
	.st25{fill:#DCA886;}
	.st26{fill:#F6E2D5;}
	.st27{fill:#CE9F81;}
	.st28{fill:#E7B28D;}
	.st29{fill:#E4DBD5;}
	.st30{fill:#E6B18D;}
	.st31{fill:#DFAE8D;}
	.st32{fill:#D3976F;}
	.st33{fill:#B0A29A;}
	.st34{fill:#AD988D;}
	.st35{fill:#AA9D98;}
	.st36{fill:#B9A59A;}
	.st37{fill:#AE9C92;}
	.st38{fill:#DAAD8E;}
	.st39{fill:#D8986E;}
	.st40{fill:#DC9E75;}
	.st41{fill:#E9CCB8;}
	.st42{fill:#E5A275;}
	.st43{fill:#E6A071;}
	.st44{fill:#E3C4B0;}
	.st45{fill:#E0BBA2;}
	.st46{fill:#F3E0D4;}
	.st47{fill:#EFC1A3;}
	.st48{fill:#DFC5B4;}
	.st49{fill:#E1C1AD;}
	.st50{fill:#D5B9A7;}
	.st51{fill:#E0C3B1;}
	.st52{fill:#E4C5B0;}
	.st53{fill:#E3BEA5;}
	.st54{fill:#E2BFA7;}
	.st55{fill:#E6B99C;}
	.st56{fill:#F2C19F;}
	.st57{fill:#D4B097;}
	.st58{fill:#F2C6A5;}
	.st59{fill:#F7CDAF;}
	.st60{fill:#E1B99E;}
	.st61{fill:#D1AE97;}
	.st62{fill:#E0AD8B;}
	.st63{fill:#DAA785;}
	.st64{fill:#D6AA8D;}
	.st65{fill:#E4BEA4;}
	.st66{fill:#ECD4C4;}
	.st67{fill:#DCB297;}
	.st68{fill:#E0B598;}
	.st69{fill:#D7B198;}
	.st70{fill:#EABC9E;}
	.st71{fill:#DAA582;}
	.st72{fill:#D3A485;}
	.st73{fill:#D19D7A;}
	.st74{fill:#D29C79;}
	.st75{fill:#DBAF90;}
	.st76{fill:#DDB395;}
	.st77{fill:#E0B69B;}
	.st78{fill:#D7A685;}
	.st79{fill:#E9CEBC;}
	.st80{fill:#E1C1AC;}
	.st81{fill:#EDD7C8;}
	.st82{fill:#D5BAAA;}
	.st83{fill:#E9D0BF;}
	.st84{fill:#E1C2AF;}
	.st85{fill:#E8CBB7;}
	.st86{fill:#DEB496;}
	.st87{fill:#E3BCA2;}
	.st88{fill:#E7C4AD;}
	.st89{fill:#DDAB88;}
	.st90{fill:#C79574;}
	.st91{fill:#DC9E74;}
	.st92{fill:#CFA080;}
	.st93{fill:#BA9F8F;}
	.st94{fill:#DAA47F;}
	.st95{fill:#BEA79A;}
	.st96{fill:#CB9D7E;}
	.st97{fill:#B79B8B;}
	.st98{fill:#D29A72;}
	.st99{fill:#AD9689;}
	.st100{fill:#D79E77;}
	.st101{fill:#D7A07B;}
	.st102{fill:#E1AC87;}
	.st103{fill:#D1AC94;}
	.st104{fill:#BA8D6F;}
	.st105{fill:#EDD3C1;}
	.st106{fill:#C59C82;}
	.st107{fill:#F2DFD0;}
	.st108{fill:#9F8A7F;}
	.st109{fill:#D39469;}
	.st110{fill:#DBAE8F;}
	.st111{fill:#E6C5AF;}
	.st112{fill:#E3BEA4;}
	.st113{fill:#E1AF8D;}
	.st114{fill:#F1C1A2;}
	.st115{fill:#EFC0A1;}
	.st116{fill:#DFB89F;}
	.st117{fill:#E1C0AA;}
	.st118{fill:#E2C0AA;}
	.st119{fill:#E6C3AC;}
	.st120{fill:#F1DBCD;}
	.st121{fill:#D89D76;}
	.st122{fill:#D79F79;}
	.st123{fill:#D69E77;}
	.st124{fill:#D6A687;}
	.st125{fill:#E2BA9F;}
	.st126{fill:#E4BDA4;}
	.st127{fill:#E5C0A7;}
	.st128{fill:#DFB599;}
	.st129{fill:#D59B74;}
	.st130{fill:#D4966D;}
	.st131{fill:#BE855D;}
	.st132{fill:#CD8E63;}
	.st133{fill:#B27C55;}
	.st134{fill:#C78A60;}
	.st135{fill:#D29E7B;}
	.st136{fill:#D7A584;}
	.st137{fill:#D7A989;}
	.st138{fill:#D59D78;}
</style>
<path class="st0" d="M55.1,123.1c0.6,10.3,1.4,20.6,1.2,30.9c0.6,3.2,0.1,6.5,0.3,9.8c0.1,1.3-0.8,1.9-1.9,2.4
	c-0.9,0.3-1.9,0.1-2.7-0.6c0.8-6,0.3-12,0.4-18c0-1.4-0.2-2.8,0.5-4.1c0.9-0.9,1.3,0,1.4,0.6c0.3,1.2,0.3,2.5,0,3.7
	c0.1-6.9-1.1-13.8-0.7-20.7c0-1,0.1-2.1,0.3-3.1C54.2,123.4,54.5,123,55.1,123.1z"/>
<path class="st1" d="M37.3,6.7l1.8-3L41.4,3c0.2,0.2,0.2,0.5,0.2,0.8c-0.4,1.3-0.8,2.6-0.9,4c-0.6,1.1,0.7,2.2,0,3.3
	c-2.1,4.2-2.2,8.9-3.2,13.4c-1,4.7-0.7,9.4-0.7,14.2c0.1,2.9-0.5,5.8-1.8,8.5c-0.4,0.4-0.9,0.5-1.4,0.3c-1.3-2.3,0.6-4.2,0.6-6.3
	c0.3-1.5,0.4-3,0.3-4.5c0-3,0-6.1,0-9.1c0-1.2,0-2.5,0.1-3.7c0.7-2.9,0.9-5.9,1.6-8.8c0.2-1.3,0.1-2.5-0.2-3.8
	c0-0.7,0.1-1.3,0.4-1.9V9.2C37.1,8.5,36.5,7.3,37.3,6.7z"/>
<path class="st2" d="M61.7,9.7c-1.7,3.1-1.4,6.7-2.6,10c-1,2.6-1.3,5.5-1.9,8.2L57,28.3c-0.3,0.7-0.8,1.2-1.6,1
	c-0.2-0.2-0.5-0.4-0.6-0.6c-0.6-1.8,0.3-3.5,0.4-5.2c0.3-0.9,0.5-1.9,0.6-2.9c0-0.3,0.1-0.5,0.2-0.8c0.3-0.9,0.3-1.9,0.5-2.8
	c0.5-2.7,1.6-5.2,1.9-8c0-0.3,0-0.5,0-0.8c0.1-0.2,0.2-0.5,0.5-0.6c1-0.3,1.6-1.3,2.5-1.6c0.5,0.1,0.9,0.6,0.9,1.2
	C62.1,8,62,8.9,61.7,9.7z"/>
<path class="st3" d="M64.8,68.6c-0.1,3.2-1.2,6.3-3,9c-1.4,1.5-2.8,3.1-4.8,3.8c-2.3,0.9-2.1,2.8-2.2,4.8c-0.1,1.7,0.5,3.9-2,4.7
	c-0.3-0.4-0.6-0.8-0.6-1.3c-0.2-1.8-0.2-3.7,0.1-5.5c0.5-2.4,2.1-4.4,4.2-5.6c3.3-1.8,5.6-5,6.2-8.7c0.6-2.8,1.4-5.6,2.4-8.4
	c0.4-1,0.6-2.2,1.7-2.7c1,0.5,0.7,1.3,0.4,2.1c0,1.3-0.4,2.5-1,3.6C65.2,65.6,65.3,67.2,64.8,68.6z"/>
<path class="st4" d="M9.6,37.5c5.6,3.7,8.7,9.4,12.4,14.6c-0.6,1.2-1.4,0.7-2.2,0.3c-2.9-2.8-5.2-6.3-7.6-9.5
	c-1.4-1.8-3.8-2.6-4.6-4.8C8.2,37.5,9,37.6,9.6,37.5z"/>
<path class="st5" d="M74.3,9.7c3.3,1.2,2.9,4.3,2.2,6.3c-2.3,7.3-4.9,14.6-9.4,21c-1.2-2.3,0.8-3.7,1.3-5.6
	c2.4-4.7,4.4-9.7,5.8-14.8c0-0.3,0.1-0.6,0.2-0.8c0.4-1.1,0.4-2.2,0.3-3.3C74.6,11.6,73.8,10.7,74.3,9.7z"/>
<path class="st6" d="M56.3,90.3l-1.2,12.7c-0.9,0.1-1-0.6-1.3-1.3c-0.3-2.9,0-5.8,0.7-8.6c0.1-1-0.6-0.7-0.2-0.8
	c0.1,0,0.2,0.1,0.1,0.2c-0.5,1.7,0.4,4-1.9,4.9c-0.9-1.5-0.9-3.4,0-4.9c1.3-2.3,1.9-4.9,1.7-7.5c-0.2-1.1,0.2-2.3,1.1-3
	c1.9,0,2,1.1,1.6,2.6C56.4,86.5,56.2,88.4,56.3,90.3z"/>
<path class="st7" d="M41.4,3.6V3c2.5-0.5,3.6,0.5,3,3.1c0.9,1.3,0.8,3.1-0.1,4.3c-1.2,1.2-2.4,1.2-3.5-0.1c-1-0.6-1.6-1.4-0.6-2.5
	S40.6,4.9,41.4,3.6z"/>
<path class="st8" d="M55.1,123.1l-0.6,0.6c-0.3,0.2-0.7,0.1-0.9-0.2c0,0,0,0,0,0c-1-2.4-0.5-5-0.5-7.4c0-3.9-0.5-7.8,0.3-11.7
	c1.2-1.7,1.3,0,1.7,0.6L55.1,123.1z"/>
<path class="st9" d="M20.4,52.1c0.5,0.4,1.2,0.4,1.7,0l1.3,1.5c3,1.8,4.7,1.2,7.3-2.4c1.1-1.2,1.2-3.2,2.9-4h1.2l0.3,0.3
	c0.1,0.7,0,1.4-0.4,2c-1,2.4-2.6,4.5-4.8,6c-1.7,1-3.5,1.8-5.6,1.2c-1.7-0.6-3.2-1.8-4.1-3.5C20,53,20.1,52.5,20.4,52.1z"/>
<path class="st10" d="M44.4,15.7l-0.6,0.6c-0.7,1.7-0.2,3.4-0.3,5.1c0,3.1,0,6.1,0,9.2c0.1,0.7,0,1.5-0.3,2.2c-0.4,0.1-0.8,0-1-0.4
	c-1.1-5-0.3-10-0.5-15.1c0.3-2.4,1-4.8,2-7.1c0.8-1.3,0.7-2.8,0.6-4.3c2.1,0.4,1.1,2.1,1.1,3.2C45.3,11.4,44.7,13.6,44.4,15.7z"/>
<path class="st11" d="M56.3,90.3c-1.4-1.7-0.2-3.4,0.1-5.1c0.1-1.1,0.9-2.2-0.7-2.8c-0.4-1.1,0.7-1.3,1.2-1.8c2-0.4,2.7-2.7,4.8-3
	c0.2,1.2-0.7,1.8-1.3,2.6C58.3,83.2,56.9,86.7,56.3,90.3z"/>
<path class="st12" d="M31.2,51.5c-0.8,2.5-2.8,3.6-5.1,4c-1.2,0.2-2.4-0.6-2.6-1.8c0,0,0,0,0-0.1c0.8,0.1,1.6,0,2.3-0.4
	c2.1-0.3,2.8-2.4,4.1-3.7C31.1,49.7,31.4,50.4,31.2,51.5z"/>
<path class="st13" d="M65.3,41.1l-0.6,0.7c-0.7,0.9,0.1,2.2-1,3.4c-2.3-4.7,0.7-8,2.1-11.5c0.8-0.9,1.2-2.1,2-2.9
	c1-1,1.7-0.9,1.2,0.8C68.7,33.5,67,35,67.1,37c-0.4,0.8-0.8,1.7-1.1,2.5C65.3,39.9,66,40.8,65.3,41.1z"/>
<path class="st14" d="M58.1,1.3V0.6c1.5-0.4,3.2-1,3.9,1.2c-0.5,0.9-0.8,2-0.9,3c-0.1,1.4-1,2.6-2.4,3v0.1c-0.2,0.2-0.5,0.2-0.8,0
	c-1-1.3,0.4-3.1-0.8-4.4C56.8,2.6,57.3,1.6,58.1,1.3z"/>
<path class="st15" d="M81,37c-0.9,2.1-1.7,4.1-3.6,5.6c-0.6-0.2-1-0.8-1-1.4c0.4-2.4,1.9-4.3,2.8-6.5c0.2-0.7,0.9-1.1,1.6-0.9
	c0,0,0,0,0,0C81.9,34.7,80.5,35.9,81,37z"/>
<path class="st16" d="M76.7,41.2l0.6,1.3c-1,2.5-2.4,4.7-4.2,6.7c-0.6-0.3-1.1-0.7-1.4-1.3c-0.1-0.4,0.1-0.8,0.3-1.1
	c0.7-0.8,1.3-1.8,1.5-2.9c0.1-0.4,0.2-0.8,0.5-1.1C75,42.3,75.4,41.1,76.7,41.2z"/>
<path class="st17" d="M61.8,2.5c-0.3-2.5-2.1-1.8-3.6-1.8c3.8-1.5,5.6-0.3,5.4,3.5c-0.1,2-0.7,3.9-1.8,5.6c-0.5-0.8,0.4-1.6,0.1-2.4
	c0.7-1.1-0.4-2.1-0.2-3.2C61.4,3.5,61.5,3,61.8,2.5z"/>
<path class="st18" d="M71.9,47.9c0.9,0,1.2,0.6,1.3,1.4l-4.1,6.6c-1.2,0.2-1.1-0.7-1.2-1.4c0.1-0.6,0.3-1.2,0.6-1.7
	c0.9-1.4,1.7-2.8,2.5-4.2C71.2,48.2,71.5,48,71.9,47.9z"/>
<path class="st19" d="M70.7,10.2l1.2-0.6c0.7-0.3,1,0.1,1.4,0.6c0.1,0.9-0.7,1.8-0.4,2.7c-0.1,1.1-0.2,2.2-0.4,3.3
	c-0.1,0.3-0.2,0.5-0.4,0.8c-1.2,0.4-1.9-0.2-2.6-1c-0.1-0.3-0.2-0.6-0.2-0.9C69.5,13.5,70,11.8,70.7,10.2z"/>
<path class="st20" d="M71.9,17c0-0.2,0-0.4,0-0.6c0.9-1.3,1.3-2.9,1.1-4.5c0-0.5,0.5-1,0.1-1.5l-1.3-0.7c0.8-1,1.6-0.3,2.4,0.1
	l1.2,2.5c-0.6,1.1,0,2.4-0.5,3.6l-0.1,0.6c-0.4,0.5-0.9,0.9-1.6,1c-0.4,0.1-0.8,0-1.1-0.1L71.9,17z"/>
<path class="st21" d="M54.5,165.5c1.6-0.1,1.8-1.2,1.8-2.5c0-3,0-6,0-9c0.5,4.1,1.6,8.2-0.6,12.1c-0.2,0.2-0.4,0.3-0.7,0.3
	c-0.2,0-0.5-0.1-0.7-0.2C54.3,165.9,54.4,165.7,54.5,165.5z"/>
<path class="st22" d="M68.3,54c0,0.7,0,1.5,0.8,1.9c-0.4,1.7-1,3.3-1.9,4.9c-0.1-0.7,0.1-1.5-0.7-1.9C65.7,56.6,66,54.9,68.3,54z"/>
<path class="st23" d="M58.1,1.3c-0.4,0.7-0.7,1.5-0.6,2.4c0.1,1,0.3,2.1-1,2.6c-0.8-0.2-0.2-1.8-1.5-1.4c0.2-0.8,0.5-1.6,0.7-2.4
	C56.5,2,57.1,1,58.1,1.3z"/>
<path class="st24" d="M70.7,10.2c0.5,1.9-0.5,3.4-1.1,5c-0.6-0.2,0-1.7-1.2-1.2c-0.3-1.7,1.2-2.4,1.8-3.6
	C70.3,10.3,70.5,10.3,70.7,10.2z"/>
<path class="st25" d="M81,37c-1.3-1,0.2-2,0-3.1c-0.2-0.2-0.3-0.5-0.3-0.8c0.3-0.8,0.6-1.3,1.6-1.1C83,34,81.6,35.4,81,37z"/>
<path class="st26" d="M82.2,32l-1.3,1.3c-0.3,0.3-0.7,0.4-1.1,0.2c-0.7-1.5,0.9-2.3,0.9-3.6c0-0.5,0-1-0.1-1.4
	c0-0.2,0.1-0.5,0.3-0.6h1.2l0,0c0.4,1,0.4,2.1,0,3.1L82.2,32z"/>
<path class="st27" d="M5.4,37.6c0.8-1.1,2-0.5,3.1-0.7c0.4,0.2,1,0.1,1.2,0.6c-0.4,0.8-1.1,0.7-1.8,0.7C7,38.5,6,38.2,5.4,37.6z"/>
<path class="st22" d="M64.8,68.6c0-1.6,0-3.1,1.4-4.3C65.8,65.8,65.7,67.3,64.8,68.6z"/>
<path class="st5" d="M65.3,41.1c0.1-0.6-0.1-1.3,0.7-1.6c-0.1,0.5,0.3,1,0.9,1.1c0.1,0,0.2,0,0.3,0c-0.3,0.6-0.7,1.3-1.4,1.4
	C65.3,42.1,65.4,41.5,65.3,41.1z"/>
<path class="st28" d="M55.1,104.9l-1.1-1.2c-0.5-0.8-0.7-1.6,0.6-1.8c-0.1,0.5,0.2,0.9,0.6,1.2C55.1,103.7,55.1,104.3,55.1,104.9z"
	/>
<path class="st29" d="M82.1,31c0-1,0-2,0-3.1c0.8,0.8,0.9,2.1,0.1,3C82.2,30.9,82.2,31,82.1,31z"/>
<path class="st30" d="M54.5,101.9c-0.7,0.4-0.6,1.2-0.6,1.8v20c0.7,0.9-0.2,2.1,0.6,3c-0.4,7.3,1,14.5,0.5,22
	c-2.1-1.6-0.2-4.1-1.7-5.6c-0.9-0.9-0.8-2-0.8-3.1c-0.1-2.7,0.3-5.4-0.5-8.1c-1.1-9.5-0.7-19-0.7-28.5c-0.1-2,0.4-4,1.4-5.7
	c1.2-1.6,0.1-4,2.4-5.6C54.7,95.3,54.5,98.6,54.5,101.9z"/>
<path class="st21" d="M52.8,97.6c-1.2,11.5-0.6,23,0,34.6c0.8,2.6-0.3,5.3,0.6,7.9c0,1,0,2,0,3c0,6.3,0,12.6,0,18.9
	c0,1.3,0,2.6-1.2,3.5c-2.2,0.9-4.6,1.1-6.8,0.5c-0.3-0.2-0.6-0.4-0.7-0.8c0-0.4,0-0.7,0.2-1c1-0.8,2.3-0.6,3.4-0.7
	c0.9-0.1,1.9,0.1,2.6-0.8c1.7-4.1,0.9-8.4,0.7-12.5c0-0.8-0.3-1.6-0.3-2.4c0.3-7.9-1-15.7-0.6-23.6c0.2-3.3-0.6-6.4-0.6-9.7
	c0-6.8,0.5-13.7,1.2-20.5c0-1,0.4-2,1-2.8l0.5-0.3c1.4-1.7,1.2-3.9,1.2-5.9c-0.1-2.3,0.7-3.8,3-4.4l-1.2,1.8c-0.3,0.5-1,1-0.9,1.4
	C55.3,88.7,52.5,92.9,52.8,97.6z"/>
<path class="st31" d="M45,165.5h9.6c0,0.2,0,0.4,0,0.5c-2.1,0.8-4.3,0-6.4,0.6c-2,0.1-3.9,0-5.9,0c-0.7,0.1-1.4-0.1-2-0.5
	c-0.3-1.1,0.5-1.2,1.2-1.4C42.7,164.5,44,164.7,45,165.5z"/>
<path class="st28" d="M54.5,126.7c-1-0.9-0.4-2-0.6-3h0.6C54.5,124.7,54.5,125.7,54.5,126.7z"/>
<path class="st32" d="M32.9,43c0.8-1.1,0.6-2.3,0.7-3.6c0.1-0.2,0.5-0.3,0.7-0.1c0,0,0,0,0,0c0.4,0.4,0.5,1,0.5,1.5
	c0,0.1,0,0.3,0,0.4c0.3,2.2-1.3,4-1.2,6.1c-0.8,1.4-1.2,3.1-2.4,4.3c-0.4-0.7-0.9-1.3-1.3-2l1.9-4C32.3,44.8,32.2,43.7,32.9,43z"/>
<path class="st33" d="M28.1,141.3l-0.6-0.6c0.2-1.6-0.5-3.4,0.6-4.9c0.9,0.8,0.8,2,0.8,3C29.1,139.7,28.8,140.6,28.1,141.3z"/>
<path class="st33" d="M28.2,134c0.2-1.8-0.5-3.8,0.6-5.5c0.9,0.8,0.8,1.9,0.8,2.9c0.1,0.9-0.1,1.7-0.5,2.5
	C28.9,134.1,28.5,134.2,28.2,134C28.2,134,28.2,134,28.2,134z"/>
<path class="st34" d="M29.4,120.6h0.6c0.4,0.3,0.6,0.7,0.7,1.2c0.1,0.3,0.1,0.7,0.1,1c0.1,1-0.1,2-0.7,2.8c-0.3,0.1-0.7,0-0.9-0.3
	c0-1.2-0.3-2.3,0.2-3.5L29.4,120.6z"/>
<path class="st35" d="M28.8,126.7h0.6c0.6,0.6,0.9,1.5,0.8,2.4c-0.2,1,0.1,2.2-1.4,2.5c0-1,0-2.1,0-3.1
	C28.8,127.9,28.8,127.3,28.8,126.7z"/>
<path class="st36" d="M26.4,166.1h-0.6c0-1.4,0-2.8,0-4.2h0.6C27.5,163.1,27.4,164.9,26.4,166.1z"/>
<path class="st37" d="M28.2,134h0.6c0.9,0.8,0.8,1.8,0.8,2.8c0,0.7-0.2,1.3-0.5,1.9c-0.2,0.3-0.6,0.4-0.9,0.2c0-1,0-2.1,0-3.1
	L28.2,134z"/>
<path class="st38" d="M43.8,10.3c0.3,2.4-0.7,4.5-1.2,6.6c-0.2,6.1-1.5,12.3,0.8,18.3c0.1,0.3,0.1,0.6,0.1,0.9
	c-1.5,0.5-3,1.1-2.6,3.3c0.1,0.7-0.3,1.5-1,1.7c-2.5,0.5-2.5,2.7-3.2,4.5c-0.4,0.7-0.6,1.8-1.8,1.6l0,0c2-11.6,0.8-23.5,4-35
	c0.4-1.4,1.2-1.4,1.9-1.9C41.8,10.4,42.8,11.2,43.8,10.3z"/>
<path class="st39" d="M35.4,27.3V37c-0.3,0.2-0.7,0.3-1,0.2c-0.3-0.2-0.5-0.5-0.5-0.9c0.1-3-0.3-6.1,0.2-9.1h0.1
	c0.1-0.2,0.3-0.3,0.6-0.4C35,27,35.2,27.1,35.4,27.3z"/>
<path class="st40" d="M34.8,23.6c0.3-2,0.7-4,1-6.1c-0.2-0.9-0.5-1.9,0.4-2.6c0.3-0.1,0.6,0,0.9,0.2c-0.6,2.8-1.2,5.7-1.8,8.5
	C35.2,23.9,35,23.9,34.8,23.6z"/>
<path class="st41" d="M41.4,3.6c0.3,1.7-0.4,3.2-0.7,4.8c0,0-0.2,0.1-0.2,0.1c-0.1-0.2-0.3-0.5-0.4-0.7C40.1,6.3,40,4.7,41.4,3.6z"
	/>
<path class="st32" d="M34.8,37h0.6c-0.2,1.4,0.5,3-0.6,4.2l0,0C34.5,39.8,33.8,38.4,34.8,37z"/>
<path class="st42" d="M34.8,23.6h0.5v3.6h-0.6c-0.4-1-0.4-2,0-3L34.8,23.6z"/>
<path class="st43" d="M37.2,15.2h-0.6c-0.3-0.3-0.3-0.9,0-1.2c0,0,0,0,0,0l-0.1-0.6l0.1-1.8C37.7,12.6,37,14,37.2,15.2z"/>
<path class="st44" d="M58.8,8.5c0.3,0.4,0.8,1,0.8,1.1c-1.6,2.2-1.2,5.1-2.5,7.4c-0.7,0.9,0.1,2.1-0.6,3l0,0c-0.7,0.9,0.1,2.1-0.6,3
	l-0.6,6.1l0.1,0.5c-1,4.3-0.5,8.9-2.4,13.1c-0.4,0.9-0.4,2.3-1.9,2.3c-1.4-2.7-0.3-5.8-1.5-8.4c0-0.3,0-0.6,0-0.9
	c0.5-1,0.9-2.1,1.1-3.3c0.1-0.3,0.1-0.6,0.2-0.9c0.5-2.9,1.1-5.8,1.5-8.8c0.5-1.2,0.2-2.7,0.8-3.9c1.3-2.4,1.6-5.1,2.7-7.6
	c0.4-1,0.5-2.2,1.4-2.9C57.6,8,58.3,8.1,58.8,8.5z"/>
<path class="st45" d="M55.2,29.1h0.6c0.9,0.9,0.4,2.1,0.8,3.1c0,0.9,0.5,1.8,0.2,2.7c-1.4,0.3-1.4,0.3-0.1,2.1
	c0.5,0.5,1.2,0.9,1.2,1.7c-1.4,3.2,0.4,6.5-0.7,9.8c-0.6,1.6-0.8,3.3-2.8,3.8c-1.2-0.7-0.5-1.6-0.1-2.3c1-1.9,0.9-3.8,0.8-6
	c-2.2,1.4-1.1,4.8-3.9,5.4c-0.5-0.4-0.7-1.1-0.6-1.7c0-0.3,0.1-0.6,0.2-0.9c3.3-5,3.1-10.8,4.2-16.4C54.8,29.9,55,29.5,55.2,29.1
	L55.2,29.1z"/>
<path class="st46" d="M61.8,2.5l0.6,1.2c-0.6,0.7,0,2-1.2,2.5C61,7.6,60.1,8,58.8,7.8c1.4-1,2.1-2.7,1.8-4.3
	C60.5,2.6,60.6,1.9,61.8,2.5z"/>
<path class="st47" d="M56.4,32.1c-1-0.9-0.5-2-0.6-3l1.2-1.2c0,1.2,0,2.4,0,3.6C56.7,31.7,56.7,32.1,56.4,32.1z"/>
<path class="st48" d="M61.2,6.1c0.5-0.8,0.3-1.8,1.2-2.5c-0.2,1.2,0.4,2.6-0.6,3.7C61.8,6.8,61.6,6.4,61.2,6.1z"/>
<path class="st49" d="M55.8,23c0.2-1-0.4-2.2,0.6-3C56.2,21,56.8,22.2,55.8,23z"/>
<path class="st50" d="M58.8,8.5H57c-0.4-0.1-0.7-0.3-0.8-0.7c0-0.1,0-0.3,0-0.4c0.1-0.2,0.3-0.4,0.5-0.4c0.8-0.2,1.1,0.4,1.5,0.9
	h0.6L58.8,8.5z"/>
<path class="st49" d="M56.3,20c0.2-1-0.4-2.2,0.6-3C56.8,18,57.3,19.2,56.3,20z"/>
<path class="st51" d="M68.3,54c-1.1,1.4-1.8,3.1-1.8,4.8c-1.2,4.2-2.4,8.4-3.7,12.7c-0.8,3.3-3.1,6-6.1,7.5c-1.9,0.9-3,2.8-4,4.7
	c-1.5-1.9-0.8-4-0.6-6.1c0.4-6.3,0.5-12.6,0.2-18.8c-0.3-1.4-0.2-2.9,0.3-4.2c0.2-0.6,0.6-1.2,1.1-1.7c3.5-2.2,3.6-5.7,3.3-9.3
	c-0.2-2-0.3-3.8,1.2-5.3c1.5-1.2,2.9-2.5,2.5-4.7c0-0.4,0.1-0.8,0.4-1.1c0.8-1.2,1.7-3,3.4-2.2C66,31,65.7,33,64.9,34
	c-2.6,3.7-2.4,7.9-2.5,12.1c-0.3,1.2-0.7,2.3-1.3,3.4c-0.1,0.3-0.2,0.5-0.4,0.8c-1.3,2.4-1.5,5-1.7,8.1c2.2-1.4,2.6-3.3,3.3-4.9
	c0.2-0.5,0.5-1,0.7-1.5c1.4-2.4,1.8-5.4,4.2-7.3c0.6-0.6,1.3-1.2,2-1.7c2.5-2,4.5-4.5,6-7.3c0.3-0.8,0.9-1.6,1.6-2.1
	c0.6-0.4,1.4-0.4,1.9,0.1c0.5,0.4,0.6,1.1,0.2,1.6c-1.4,2.7-2.3,5.8-4.7,7.9v1.2c-0.8,0.9-1.4,1.9-1.8,3l-0.6,0.6l-0.6,0.6
	c-1,1.3-1.8,2.7-2.4,4.2C69,53.2,68.8,53.7,68.3,54z"/>
<path class="st52" d="M51.5,164.3h-3c-0.5-0.4-1.5-0.3-1.7-1.3c0.5-7.4-0.2-14.9,0.6-22.4c0.5-5.4,0.1-10.9,0.2-16.4
	c0.2-17.3,0.6-34.5,0.9-51.8c0-0.9-0.1-1.8-0.3-2.7c-0.1-0.4-0.1-0.8,0-1.1c0.7-1.3,1.4-2.3,3-1.2c0.7,1.3,0.6,2.7,0.6,4.1
	c0,5.1,0,10.1,0,15.1c0,1.1-0.3,2.3,0.9,3v1.2l0,0c-1.4,1.9-1.3,4.2-1.4,6.4c-0.7,9.5-0.8,18.9-0.3,28.4c0.6,10.9,1.2,21.7,1.2,32.6
	C52.2,160.3,52,162.3,51.5,164.3z"/>
<path class="st52" d="M52.8,89.7c-2.4,0.7-1.8-1.2-1.8-2.3c0-6.7,0-13.4,0-20.1c-0.5-3.3-0.6-6.4,1.8-9.1c1,0.9,0.6,2.1,0.6,3.1
	c0.1,7.4,0,14.9-0.6,22.3L52.8,89.7z"/>
<path class="st53" d="M5.4,37.6c0.8,0.1,1.8-0.3,2.5,0.6c5.5,3.4,8.3,9.4,12.5,14c0,0.4,0,0.8,0,1.2L20,53.5
	c-2.4-0.9-3.4-3.3-4.9-5.1c-1.5-2-3.1-3.9-4.8-5.8c-0.8-0.8-1.7-1.4-2.9-1.2c-0.6-0.2-1.2-0.5-1.7-1c-0.7-0.6-1.4-1-2.2-1.5
	c-0.1-0.2-0.1-0.5,0-0.7L5.4,37.6z"/>
<path class="st54" d="M58.8,38.8c-2.3,1.8-1,4.3-1.1,6.5c-0.2,3.3-0.7,6.2-3.7,8.1c-0.3-0.2-0.4-0.7-0.2-1c0.1-0.1,0.2-0.2,0.2-0.3
	c3-1.9,3-5.1,2.7-8c-0.2-2.2-0.2-4.1,0.9-6c-0.7-0.8,1.1-1.3,0.3-2.1c0-1.3,0.3-2.7,0.9-3.9c0.2-0.4,0.4-0.7,0.8-0.9
	c1-0.5,1.1-1.5,1.5-2.3l0.7-1.2c1.1-0.5,1.2-1.7,2.1-2.4c0.9-0.6,1.5-1.9,2.9-1c0.3,1.9-1,3-2.1,4.1c-2,2-3.9,4-4.1,7.1
	C60.5,36.9,59.4,37.8,58.8,38.8z"/>
<path class="st55" d="M66.5,24.2l-2.4,1.8c-0.5-0.4-0.6-1.1-0.5-1.6c0.1-0.3,0.3-0.5,0.4-0.8h0.1c1.1-1.7,1.9-3.6,2.3-5.5
	c0-1.3,0.1-2.6,1.3-3.5c0.6,0.2,1,0.7,1.2,1.4c0,2.8-0.7,5.5-2,8L66.5,24.2z"/>
<path class="st56" d="M66.5,18.1c0.4,2.4-0.1,4.3-2.3,5.5c0.2-1,0.4-2,0.6-3c0.5-0.6,0.7-1.4,1.2-2L66.5,18.1z"/>
<path class="st57" d="M68.3,15.8l-0.6-1.2l0.6-0.6c1.5-0.7,1.1,0.5,1.2,1.2c0,0.2,0,0.4,0,0.6c0.1,0.1,0.2,0.3,0.2,0.4
	c0,0.2-0.1,0.3-0.1,0.3C69,16.7,68.7,16.2,68.3,15.8z"/>
<path class="st58" d="M64.1,24.2v1.8c-0.8,0.6-1,2-2.4,1.8l0.5-1.1C63,26,62.5,24.4,64.1,24.2z"/>
<path class="st59" d="M61.1,29.1c-0.1,1,0.3,2.2-1.2,2.5c-0.6-0.9,0-1.3,0.6-1.8v-0.6C60.7,29.1,60.9,29.1,61.1,29.1z"/>
<path class="st60" d="M73.2,17l1.7-0.6c-1.1,5.4-3.1,10.5-5.9,15.2c-0.2-0.3,0-1.3-0.7-0.5s-0.8,2.1-1.8,2.9
	c-0.4-0.4-0.6-1.1-0.5-1.7C67.9,26.9,70.2,21.8,73.2,17z"/>
<path class="st61" d="M75,15.8c-0.4-1.2-0.2-2.5,0.5-3.6C75.4,13.4,76,14.7,75,15.8z"/>
<path class="st62" d="M52.2,12.1c0.8-2.2,1.6-4.5,2.3-6.7c1,0.2,1.6,1,1.5,2c-0.1,2.4-0.5,4.8-2.3,6.6
	C52.7,13.8,52.7,12.8,52.2,12.1z"/>
<path class="st63" d="M52.2,12.1c1.2,0.1,1.2,1,1.2,1.8c0,0.1,0,0.3,0,0.4c-0.6,2.2-0.2,4.8-2.5,6.3c-0.6-0.5-0.9-1.3-0.6-2
	c-0.2-1.3,0.9-2.3,0.5-3.6C51.3,14.1,51.7,13.1,52.2,12.1z"/>
<path class="st64" d="M55.8,7.3c-0.4-0.6-0.8-1.2-1.2-1.8l0.6-0.6c1.4-0.6,1.3,0.3,1.3,1.2c0.3,0.3,0.3,0.8,0,1.2c0,0,0,0,0,0l0,0
	C56.2,7.5,56,7.6,55.8,7.3z"/>
<path class="st65" d="M66.5,32.1V34c-1.4,3.3-3.6,6.3-2.9,10.2c1-0.5,0.1-1.9,1.1-2.3c0.1,0.7-0.2,1.4,0.4,2
	c1.6-0.5,2.1-2.5,3.8-2.7c1.1-0.1,1.4-1.5,2.6-1.5c0.3,0.1,0.5,0.2,0.7,0.4c-0.2,1.6-2,2.2-2.6,3.6l-1.8,1.2c-2.9,1.5-3,4.7-4.2,7.3
	c0.1,0.5-0.2,1-0.6,1.2c-0.6,0.9-1.2,2-2.5,1.5C58.9,54.2,59.9,53,60,52c0-0.8,0.2-1.6,0.6-2.3l0,0c0.8-1,1.4-2.1,1.7-3.4
	c-0.5-4.1,0.3-8.3,2.3-12C65,33.4,65.1,32.1,66.5,32.1z"/>
<path class="st66" d="M80.9,27.9c0,0.2,0,0.4,0,0.6c-0.1,0.5,0.2,0.9,0.6,1.2c0,1.5-1.1,2.5-1.8,3.7c-1.8,0.5-2.3-0.6-2.4-2.1
	c0.2-1.4,1.1-2.7,2.4-3.4L80.9,27.9z"/>
<path class="st67" d="M74.9,31.4c0.2-0.5,0.6-1,1.2-1.1c0.7,0.3,1.2,1.1,1,1.8c-0.7,1.7-1.2,3.3-2.7,4.5c-0.6,0.2-1.2-0.1-1.4-0.6
	c0-0.7,0.2-1.4,0.5-2C74,33.2,74.5,32.3,74.9,31.4z"/>
<path class="st68" d="M73.1,35.8c0.3,0.4,0.7,0.6,1.2,0.6c0.2,1.9-1.2,2.7-2.4,3.6h-0.6c-0.3-0.2-0.6-0.3-0.7-0.7l0.7-1.7
	C72,37.2,71.8,35.7,73.1,35.8z"/>
<path class="st69" d="M76.7,32.1l-0.6-1.9c1-1.2,1.7-2.6,3.6-2.4l-1.8,3c-0.4,0.4-0.3,0.9-0.4,1.3c0,0.3-0.3,0.5-0.6,0.5
	C76.6,32.7,76.6,32.4,76.7,32.1z"/>
<path class="st70" d="M70.6,39.4l0.7,0.7c-1,0.1-1.1,1.9-2.4,1.1L70.6,39.4z"/>
<path class="st71" d="M44.4,34.6c2,2.1,1.9-0.8,2.9-1.3c1.6-1.5,0.7-3.8,1.8-5.4c0.3-0.2,0.6-0.2,0.9,0c0.4,0.5,0.6,1.2,0.6,1.8
	c0,2.5-0.2,4.9-2.5,6.4c-1.1,0.6-2.2,0.9-3.4,1.1c-0.6,0-1.1-0.4-1.4-0.9c0-0.2,0-0.4,0-0.6c-0.5-0.9-1.3-1.8-0.6-3h0.6
	c0.4,0.3,0.2,0.9,0.6,1.2L44.4,34.6z"/>
<path class="st72" d="M43.2,30.9v-9.7c0.2-0.3,0.3-0.3,0.5,0c0,3.2,0,6.5,0,9.7C43.5,31.2,43.3,31.2,43.2,30.9z"/>
<path class="st73" d="M43.7,21.2h-0.5c0.3-1.6-0.6-3.4,0.6-4.9C43.7,18,43.7,19.6,43.7,21.2z"/>
<path class="st74" d="M43.2,30.9h0.5c0,1,0.1,2,0.1,3c-0.4-0.2-0.7-0.7-0.6-1.2C43.2,32.1,43.2,31.5,43.2,30.9z"/>
<path class="st75" d="M34.8,47.3l1.2-1.8c1.8-0.7,2.2,0.6,2.5,1.9s0,2.8,0.5,4.1c-0.5,5.3-0.6,10.6-0.3,15.8
	c-1.1,11.3-0.4,22.6-0.6,33.8c-0.1,14.6,0,29.2,0,43.8c0,2.6-0.5,5.2-0.7,7.8c-0.3,2.5-0.3,5,0,7.5c0.3,1.9,0.1,3.9-2,5
	c-0.8,0.5-1.9,0.5-2.7,0.1c-0.3-0.2-0.5-0.6-0.3-1c0.8-1.5,1.2-3.3,1-5c-0.4-11.4,0.6-22.7,0.6-34.1c0-3.1,0.7-6.2,0.6-9.3
	c0.1-1.5-0.4-3-1.3-4.2c-1.2-4,0.2-8,0.4-11.9c0.3-5.3,0.7-10.6-0.3-15.8c-0.3-0.9-0.3-2,0-2.9c0.8-0.9,1.3-0.1,2,0.3
	c-0.7-2.6-0.5-5.1-0.4-7.7c0.2-7,1.1-14,0.4-21c0-1.2-0.4-2.4-1-3.4L34.8,47.3z"/>
<path class="st76" d="M34.2,49.1c0.8,0,1.8,0,1.7,1.2c-0.1,3.3,1.4,6.5,0.2,9.9c-0.3,1.3-0.4,2.6-0.1,3.9c0.7,5.4-1.3,10.8-0.1,16.2
	c0.2,0.7-0.1,1.5-0.9,1.8c-0.8,0.2-0.8-1.1-1.4-1.3c-1.5-2.3-4-4.1-3.5-7.4c1.4,0,2.1-0.8,2.3-2.2c0.5-4.7-0.4-9.4-0.2-14.2
	c0.1-1.5-1.5-1-2.1-1.7C31.5,53.2,33.4,51.6,34.2,49.1z"/>
<path class="st77" d="M30,55.2c2.2-0.9,3.3-0.4,3,2.3c-0.6,4.8,0.8,9.7,0.1,14.6c-0.4,2.7-1.2,2.8-3.1,1.3c-1.3-0.3-2.5-0.7-1.9-2.5
	c0.8-0.2,1.5-0.3,1.9-1.5c1.1-3.6,0.5-7.1,0.3-10.7c-0.1-1.5-1.1-1.4-2.2-1.1c-1,0.2-2.1,0.2-3.1,0.1c-0.5-0.1-0.9-0.4-1.1-0.8
	l0.1-0.5C26.1,56.8,28,55.8,30,55.2z"/>
<path class="st53" d="M20.4,53.3l3.6,3l0,0C21.3,56.8,20.4,56.1,20.4,53.3z"/>
<path class="st78" d="M42.6,32.7c0.2,1,0.4,2,0.6,3c-0.3-0.3-1-0.7-1-1c-0.8-5.9-0.6-11.9,0.4-17.7V32.7z"/>
<path class="st79" d="M56.4,7.3V6.1c0.9-0.5,0.2-1.9,1.2-2.4c2.7,1.1-0.3,2.9,0.6,4.2L56.4,7.3z"/>
<path class="st80" d="M76.7,32.1c1.1,0.3,0.4-1.2,1.2-1.2c-0.1,1.3,0.2,2.3,1.8,2.4h1.2c0,0.2,0,0.4,0,0.6c-2.4,1.8-2.6,5-4.2,7.3
	c-0.8,0.6-1.1,1.9-2.4,1.8c1.3-2.4,2.6-4.7,3.8-7.2c0.3-0.6,1.3-1.4,0.1-2s-1.6,0.4-2,1.2c-1.5,3.4-3.8,6.3-6.7,8.6
	c0-1.7,1.9-2.2,2.4-3.6l2.4-3.6L76.7,32.1z"/>
<path class="st22" d="M72.5,47.3c-0.1-1.3,0.6-2.5,1.8-3C74.1,45.5,73.4,46.5,72.5,47.3z"/>
<path class="st22" d="M68.9,52.7c-0.1-1.8,0.8-3.4,2.4-4.2C70.9,50.1,70.4,51.7,68.9,52.7z"/>
<path class="st81" d="M73.7,11.5c-0.2,1.8,0.8,4-1.8,4.9c-0.2-1.2,0-2.5,0.6-3.6C72.1,11.4,72.5,11.1,73.7,11.5z"/>
<path class="st82" d="M69.5,16.4c0-0.2,0-0.4,0-0.6l2.4,1.3l0,0c-0.6,1.9-1.5,0.9-2.4,0.3C69.3,17,69.3,16.6,69.5,16.4z"/>
<path class="st83" d="M73.7,11.5c-0.6,0-1.2,0.4-1.2,1c0,0.1,0,0.1,0,0.2c-1.4-1.2,0.2-1.7,0.6-2.4C73.5,10.6,73.8,11,73.7,11.5z"/>
<path class="st84" d="M69.5,17c0.8,0.3,1.6,1.1,2.4,0h1.2c-1.5,5.4-4.8,9.9-6.6,15.1c-2.3,3.9-4.4,7.9-3.6,12.7
	c0.2,0.7,0,1.4-0.6,1.9c-0.2,0.3-0.4,0.3-0.6,0c0.1-3-0.2-6,0.5-9c0.4-1.9,2.3-2.8,2.4-4.7c0-0.8,0.5-1.9-0.2-2.3
	c-1-0.6-1.5,0.6-2.1,1.2s-1.1,1.3-0.9,1.8c0.9,2.7-1,3.8-2.6,5c1.4-4.1,2.5-8.2,5.9-11.2c1-0.8,1.7-2,1.9-3.3l0,0
	c0.9-1.9,1.6-3.8,2-5.9C68.7,17.8,68.3,16.8,69.5,17z"/>
<path class="st85" d="M81.5,29.7c-0.5-0.1-1.3,0.6-1.5,0s0.4-0.9,1-1.2C81.4,28.8,81.6,29.2,81.5,29.7z"/>
<path class="st0" d="M53.3,140c-1.3-2.5-0.3-5.3-0.6-7.9C54.1,134.7,53,137.4,53.3,140z"/>
<path class="st86" d="M45,165.5h-3.6c-0.5-0.3-1-0.6-1.5-0.9c-1.3-1.3-1.2-2.9-1.2-4.5c-0.1-18.5,0.5-36.9,0.8-55.4
	c0.2-9.9,0.2-19.8,0.4-29.6c0.1-3.1-0.1-6.3,0.6-9.3c0.4-2.8,0.7-5.6,0.7-8.4c0.1-3.1,1-4.5,2.8-5c0.8,2.7,0.2,5.4-0.1,8
	c-0.8,7.3-0.1,14.7-0.5,22c-0.7,13.1-0.1,26.2-0.7,39.3c-0.5,11.6-0.3,23.2-0.5,34.7c0.1,0.9,0.1,1.8-0.1,2.7c-1,3,0,4.8,2.8,5.8
	C45,165.1,45,165.3,45,165.5z"/>
<path class="st87" d="M45,164.9c-4-0.1-4.5-0.7-3.8-4.7c0.1-1,0.2-2,0.2-3c0-9.6-0.4-19.2,0.1-28.8c0.7-12.2-0.1-24.4,0.6-36.6
	c0.5-8.9,0.1-17.7,0.5-26.6c0.2-4.4,0.8-8.8,1.2-13.2c0.3-0.2,0.7-0.1,0.9,0.2c0,0,0,0,0,0c0.3,0.5,0.4,1.1,0.5,1.6
	c-0.9,14,0,28-0.7,42c-0.4,8.5-0.3,16.9-0.4,25.3c-0.2,12.7-1,25.4-0.6,38.1c0,1.4-0.4,2.9,0.9,4c0.3,0.2,0.5,0.5,0.7,0.9L45,164.9z
	"/>
<path class="st88" d="M45,164.3h-0.6c-1.5-0.8-1.2-2.2-1.2-3.5c-0.3-20.1,1-40.2,0.6-60.4c0-1.1,0.3-2.2,0.8-3.2
	c0.2-0.3,0.6-0.5,1-0.4c1.7,1.5,2.4,3.9,1.7,6c-0.6,2.6-0.8,5.2-0.7,7.8c0,12.3,0,24.5,0,36.8c0,3.1-0.1,6.3-0.5,9.4
	c-0.3,2.4-0.2,4.8,1.4,6.9c0.5-0.1,1,0.2,1.2,0.6L45,164.3z"/>
<path class="st3" d="M51.5,164.3c0-7.7,0.4-15.4-0.1-23c-0.8-11.8-1.3-23.5-1-35.3c0.1-4.3,0.8-8.6,1.1-12.9c0.1-1,0.3-1.8,1.2-2.2
	c-0.7,3.1-1.1,6.3-1.2,9.5c0.1,4.5-0.9,9-0.6,13.5c0.8,11.4,0.9,22.9,1.4,34.3c0.2,4.9,0.8,9.8-0.2,14.7
	C52,163.4,51.8,163.9,51.5,164.3z"/>
<path class="st89" d="M40.8,164.9l0.6,0.6c-0.5-0.1-0.9,0.2-1.2,0.6c-2.6,0.7-5.3,0.1-8,0.3c-0.7,0-1.4,0-2.1-0.1
	c0-1.5,0.3-1.7,2.2-1.4l0,0c2.2,0.9,4.2-0.5,6.3-0.3c0.3-0.1,0.6-0.1,0.8-0.1C40,164.5,40.4,164.6,40.8,164.9z"/>
<path class="st36" d="M41.9,166.7c0-0.2,0-0.4,0-0.6h6C46,167.3,43.9,166.5,41.9,166.7z"/>
<path class="st90" d="M34.8,24.3c0,1,0,2,0,3c-0.2,0-0.4,0-0.6,0C34.3,26.3,33.8,25.1,34.8,24.3z"/>
<path class="st91" d="M34.1,39.3c0-0.8,0-1.6,0.1-2.3h0.6c0,1.4,0,2.8,0,4.2C34,40.8,34.2,40,34.1,39.3z"/>
<path class="st89" d="M27,155.8c0-1,0-2,0-3c0.2-0.2,0.5-0.3,0.7-0.1c0.4,0.5,0.7,1.2,0.9,1.8c0.1,0.3,0.2,0.5,0.2,0.8
	c0.1,0.9,0.1,1.8,0,2.6c-0.5,2.2-0.5,4.6,0.1,6.8c0.1,0.6,0.5,1.4-0.5,1.6c-1.4,0.2-1.7-0.6-1.6-1.8c0.1-1.5,0-3,0-4.5
	S26.4,157.2,27,155.8z"/>
<path class="st92" d="M27,160c0,1.5,0.1,2.9,0,4.4s0.6,1.7,1.8,1.7c0.3-0.3,0.8-0.4,1.1-0.1c0,0,0.1,0.1,0.1,0.1h1.8
	c0,0.2,0,0.4,0,0.6l-4.2,0.1c-0.5,0-1-0.2-1.2-0.6c0-1.4,0-2.8,0-4.3V160C26.6,159.8,26.8,159.8,27,160z"/>
<path class="st93" d="M27,160h-0.6c0.2-1.4-0.5-3,0.6-4.3V160z"/>
<path class="st94" d="M28.2,138.9l0.6-0.1c0.9,0.8,0.8,1.8,0.8,2.8c0,0.5-0.2,1-0.5,1.4c-0.2,0.2-0.6,0.3-0.9,0.3
	c-0.3-0.4-0.3-0.9,0-1.3c0-0.2,0-0.4,0-0.6C28.2,140.5,28.2,139.7,28.2,138.9z"/>
<path class="st95" d="M27.6,152.8H27c0.2-1.4-0.5-3,0.5-4.3l0.4,0.4C28.5,150.2,28.6,151.6,27.6,152.8z"/>
<path class="st96" d="M27.5,148.5c0-1.2,0.1-2.4,0.1-3.6c0.2-0.2,0.6-0.2,0.8,0c0,0,0,0,0,0c0.5,0.8,0.6,1.8,0.4,2.7
	c-0.1,0.3-0.2,0.6-0.4,0.8C28.2,148.7,27.9,148.7,27.5,148.5L27.5,148.5z"/>
<path class="st97" d="M28.2,144.9h-0.6c0.1-1-0.4-2.2,0.6-3c0,0.4,0,0.8,0,1.2C28.6,143.6,28.6,144.4,28.2,144.9z"/>
<path class="st98" d="M30,121.8l-0.1-1.2c0-1,0-2,0.1-3c0.3-0.2,0.6-0.1,0.8,0.1c0,0,0,0.1,0.1,0.1C31.3,119.3,32.1,120.9,30,121.8z
	"/>
<path class="st99" d="M30.5,117.5l-0.5,0.1V114h0.5c0.6,0.6,0.9,1.5,0.7,2.3C31.2,116.8,30.9,117.2,30.5,117.5z"/>
<path class="st100" d="M30.6,116.4l-0.1-2.4c0-1.4,0-2.8,0.1-4.2l0.5-0.1l0.4,0.3c0.8,1.7,0.5,3.4,0.4,5.1
	C31.6,115.8,31.5,116.5,30.6,116.4z"/>
<path class="st94" d="M28.8,137c0-1,0-2,0-3.1v-2.4c0.8-0.7,0.5-1.6,0.6-2.5c0.8-1.2-0.1-2.6,0.6-3.7v-3c1.1-0.1,1.4,0.8,1.7,1.6
	c0.1,4.6-0.5,9.2-1.7,13.7C29.3,138,29.1,137.5,28.8,137z"/>
<path class="st101" d="M31.2,123.7l-1.2-1.2c0-0.2,0-0.4,0-0.6c1.1-1.3,0.4-2.9,0.5-4.3c0-0.4,0-0.8,0-1.2c0.4-0.3,0.7-0.7,0.6-1.2
	c0.3-0.2,0.7-0.1,0.9,0.2c0,0,0,0,0,0C33,118.2,32.7,121.2,31.2,123.7z"/>
<path class="st101" d="M30,125.4c-0.1,1.2,0.5,2.6-0.6,3.7c0-0.8,0-1.6,0-2.4c0-0.4,0-0.8,0-1.2C29.6,125.5,29.8,125.5,30,125.4z"/>
<path class="st102" d="M28.8,137l0.6,0.6c0.9,1.6,1.6,3.1-0.6,4.2v-3.1C28.8,138.2,28.8,137.6,28.8,137z"/>
<path class="st103" d="M7.7,48.5C6.7,48,6.5,47,6,46.1c0.5-0.7,1.5-1.1,2.4-0.8c2.9,3.7,6,7.1,9.3,10.5c1.8,1.8,3.2,3.8,4.3,6
	c0.2,0.6,0.1,1.2-0.2,1.7c-0.2,0.2-0.5,0.3-0.8,0.3c-2.3-1.9-4.2-4.2-5.9-6.7C13,54,10.5,51.1,7.7,48.5z"/>
<path class="st104" d="M15.6,57c1.8,2.3,4,4.1,5.4,6.7c0.3,0.3,0.4,0.8,0.2,1.2c-0.2,0.2-0.5,0.3-0.8,0.3c-0.4-0.2-0.7-0.4-1-0.7
	c-0.8-1.1-1.6-2.2-2.3-3.3c-0.5-0.9-1.1-0.1-1.6-0.4c-2-1-1.3-4-3.5-4.9c0-0.2,0-0.4,0-0.5C14.2,53.9,14.6,56.1,15.6,57z"/>
<path class="st105" d="M8.4,45.4c-0.7,0.5-1.6,0.7-2.4,0.7l-0.6-0.2c-0.3-1.2-0.7-2.4-1.2-3.5c-0.2-1.2-0.8-2.3-0.6-3.6
	c1,0,1.9,0.1,2.4,1.2c0.4,1.3,1.3,2.4,2.5,3.1C9.1,43.8,9.1,44.8,8.4,45.4z"/>
<path class="st106" d="M15.6,57c-1.2-0.5-1.9-2.2-3.5-1.8l-0.7-1.8c-0.7-0.5-1.3-1.2-1.8-1.9c-0.5-1.1-1.8-1.6-1.9-3
	C11.5,50.2,13.4,53.7,15.6,57z"/>
<path class="st107" d="M4.2,42.4c1,0.9,1.4,2.2,1.2,3.5c-0.6-0.8-1-1.8-1.2-2.8C4.2,42.9,4.2,42.7,4.2,42.4z"/>
<path class="st108" d="M9.6,51.5c0.8,0.4,1.4,1.1,1.8,1.9c-1,0-1.8-0.8-1.8-1.8C9.6,51.6,9.6,51.5,9.6,51.5z"/>
<path class="st109" d="M30.5,85.5c0.1-0.8-0.1-1.7-0.5-2.4c0.5-0.7,0.3-2,1.7-1.8c2.1,3.8,2,7-0.4,9.1c-0.3-1.2,0.3-2.6-0.7-3.7
	C30.6,86.2,30.5,85.9,30.5,85.5z"/>
<path class="st110" d="M38.4,51.5c-1.1-1.1-0.5-2.4-0.6-3.6s-0.3-2.3-1.8-2.5c0.9-1.9-0.1-5.1,3.7-4.9c0.7,0,0.6-1.4,0.5-2.1
	c-0.4-2.9,0.6-3.5,3-2.1c0.5-0.1,1,0.2,1.2,0.6c0.6,0.3,1.4,0.3,1.7,1.1c0.2,3.1,1.2,6.3-0.7,9.3c-0.3,0-0.7-0.2-0.8-0.5
	c-0.7-1.7-0.3-3.4-0.4-5.1c0-0.2-0.1-0.4-0.2-0.5c-0.1,0.2-0.2,0.3-0.2,0.5c-0.2,0.9-0.7,1.8-1.5,2.3c-1.6,0.3-2.8,1.7-2.8,3.3
	C39.3,48.9,39.4,50.4,38.4,51.5z"/>
<path class="st111" d="M49.8,35.8c1.6,2.9,1.2,6,1.2,9.1c0.4,0.7,0.4,1.7,0,2.4l0,0c-0.6,0.8-0.5,1.8-0.8,2.7
	c-0.6,1.3-0.7,2.8-1.4,4.1c-0.2,0.2-0.5,0.3-0.9,0.4c-0.8,0.1-1.5-0.5-1.6-1.3c0,0,0-0.1,0-0.1c0-5.4,0-10.8,1.7-16
	c0.1-0.3,0.3-0.5,0.5-0.7C48.7,35.8,49.3,35.6,49.8,35.8z"/>
<path class="st112" d="M49.8,35.8l-0.6,0.6c-2.8,1.3-1.8,4.1-2,6.2c-0.3,2.8-0.8,5.5-1,8.3c-0.6,0.8-0.3,2.4-1.9,2.5v-1.2
	c-1.1-1.8-0.5-3.3,0.6-4.8c1.3-3.2,0.3-6.5,0.6-9.7c0.2-1,1.2-1.2,1.8-1.8c2.3-1.4,2.4-3.7,2.4-6.1c0.7-2-0.5-4.2,0.6-6.1
	c1.4-3.1,2.1-6.4,3-9.6l0,0c1.3-2,1.7-4.4,2.4-6.7h0.6v0.6c0,4.1-2.1,7.6-3,11.5c-0.4,1,0.3,2.1-0.6,3c-0.9,3.2-1.2,6.5-1.8,9.7l0,0
	c-0.5,1-0.4,2.2-1.2,3L49.8,35.8z"/>
<path class="st2" d="M51,47.3v-2.4c2.4-3.7,2.3-8,3-12.2c0.1-1.3,0.5-2.5,1.2-3.6C54.7,35.4,54.3,41.7,51,47.3z"/>
<path class="st49" d="M53.3,19.4c0.4-4,2.2-7.6,3-11.5l0.6,0.6C56,12.2,55.2,16,53.3,19.4z"/>
<path class="st49" d="M51,32.1c-0.1-3.3,0.5-6.6,1.8-9.7C52.7,25.7,52.1,29,51,32.1z"/>
<path class="st49" d="M49.8,35.2c0.1-1.1,0.5-2.1,1.2-3C51,33.3,51.2,34.6,49.8,35.2z"/>
<path class="st113" d="M51,49.1c1.9-1.2,1.4-3.7,2.6-5.3C54,43.3,54,42,55,42.3s0.6,1.3,0.7,2.1c0.3,2.7-0.3,5.4-1.7,7.7l0,0
	c-0.7,1-1.1,2.5-2.6,2c-1.6-0.6-1.1-2.3-1.1-3.7C50.4,50,50.6,49.5,51,49.1z"/>
<path class="st114" d="M56.3,35.1l0.1,0.6c0.3,0.2,0.4,0.7,0.2,1L56.3,37c-1.2-0.5-1.2-0.5-1.1-3C56,34,55.7,35,56.3,35.1z"/>
<path class="st2" d="M51,49.1v1.2c-0.3,0.3-0.4,0.7-0.8,0.8c-0.3,0-0.5-0.1-0.6-0.3c-0.1-0.4,0-0.8,0.2-1.1c0-0.9,0.5-1.8,1.2-2.4
	V49.1z"/>
<path class="st115" d="M58.1,36.3c0.8,0.9-0.6,1.2-0.6,1.9c-0.6,0.1-1.2-0.4-1.2-1c0-0.1,0-0.1,0-0.2l0,0
	C56.9,36.5,57.3,36,58.1,36.3z"/>
<path class="st116" d="M50.4,50.9l0.6-0.6c0,0.1,0,0.2,0,0.3c0.2,1-0.6,2.5,0.6,3c1,0.4,1.4-1.2,2.4-1.5v1.2l-0.6,1.2
	c-2,2.5-1.6,5.7-2.4,8.6c-0.1,0.4,0,0.8-0.1,1.2c-0.5,1.1-0.4,2.9-2.2,2.7c-1.6-0.2-1.5-1.7-1.5-2.9c0-2.4,0.5-4.8,1.3-7.1
	C49.3,55.1,48.9,52.7,50.4,50.9z"/>
<path class="st117" d="M49.2,57c-0.6,2.6-1.4,5.2-1.2,7.9c0,0.7-0.1,1.5,0.9,1.6c0.8,0,0.9-0.7,1-1.3c0.4-2,0.7-4.1,1.1-6.2
	c0.3-1.8,0.5-3.6,2.4-4.5c-0.2,1.2-0.8,2.4-0.6,3.6c-1.2,2.9-1.1,6.1-1.8,9.1c-1-0.1-1.6,0.9-2.4,1.2c-1.2-0.3-2-1.5-1.9-2.7
	c-0.2-4.1,0.1-8.1,1.9-11.9c0.2-0.2,0.6-0.2,0.7,0.1c0,0,0.1,0.1,0.1,0.1C49.4,55.1,49.7,56.1,49.2,57z"/>
<path class="st118" d="M60.5,49.7c0,0.8,0,1.6,0,2.4c0.1,0.8-0.9,1.7-0.1,2.2c1.1,0.8,1.7-0.6,2.5-0.9c0,2-1.2,3.6-2.2,5.2
	c-0.4,0.5-0.7,1-1.4,0.8c-0.7-0.2-1.2-0.9-1-1.6C59,55,58.4,52,60.5,49.7z"/>
<path class="st118" d="M63.5,52.1c0.6-2.9,0.6-6.2,4.2-7.3C65.5,46.8,65.5,50,63.5,52.1z"/>
<path class="st118" d="M61.8,46.7h0.6c0.1,1.3-0.6,2.5-1.8,3L61.8,46.7z"/>
<path class="st111" d="M47.4,163.7c-0.9,0.2-1.7-0.4-1.9-1.3c0,0,0-0.1,0-0.1c-0.6-1.9-0.7-4-0.5-6c0.8-5.4,0.8-10.8,0.1-16.2
	c-0.2-1.4,0.4-3,0.4-4.4c0-9.4,0-18.8,0-28.2c-0.1-0.9-0.1-1.8,0.2-2.7c1.5-2.7,0.7-5.2-0.2-7.8c-1.4-2.7-1-5.5-0.3-8.2
	c0.4-1.7,0.6-3.5,0.4-5.3c-0.2-4.1,0.3-8.2,0.2-12.3c0-1.3,0.7-2.9,2.7-2.2c0.9,0.7,1.3,1.8,1.2,2.9c-1.3,9.2-0.1,18.5-0.6,27.7
	c-0.7,13.3-0.2,26.6-0.7,39.8c-0.3,6.4-0.2,12.9-0.5,19.3C47.9,160.5,47.6,162.1,47.4,163.7z"/>
<path class="st88" d="M48.6,69.1c-2.2,0.3-2.2,2.1-2,3.6c0.4,2.7,0.3,5.4-0.3,8c-0.3,1-0.2,2.1,0.2,3c0.5,1.1,0.6,2.4,0.1,3.5
	c-1.6,3.2-0.8,6.5-1,9.7H45c-0.8-0.9-0.6-2.1-0.6-3.2c0-10.4-0.1-20.8,0-31.2c0-3.9,0.4-7.8,1.2-11.7c0.9-3.6,1.3-7.3,1.2-11
	c-0.1-1.8,0.3-3.2,2.4-3.5c-1.8,1.8-1.2,4.3-1.7,6.5c-0.6,3.2-0.5,6.4-0.7,9.7c-0.1,1.3,0.8,1.4,1.8,1.4c0,3.6-1.4,7-1.3,10.7
	c0,1.4,0.4,2.8,1.3,3.9L48.6,69.1z"/>
<path class="st119" d="M8.4,45.4c-0.1-0.8,0.3-1.8-0.6-2.4c-0.7-0.4-1.3-0.9-0.6-1.8c1-1.4,1.7-0.9,2.8,0c3.1,2.8,5.3,6.4,7.9,9.6
	c0.7,1,1.5,1.8,2.5,2.5c0.5,1.9,1.5,3,3.6,3l0.6,0.6c0.4,0.3,0.8,0.5,1,0.9c0.5,1.6,0.6,3.3,0.3,5c-0.3,1.3-0.7,2.6-2.5,1.9
	c-1.2-0.6-1.3-1.9-1.9-2.9c-3.6-4.7-7.5-9.1-11.7-13.3C9.1,47.6,8.2,46.8,8.4,45.4z"/>
<path class="st120" d="M7.2,41.2L7.8,43c-1.4-0.5-2.6-1.1-1.8-3L7.2,41.2z"/>
<path class="st54" d="M69.5,17c-1.3,2.3-0.7,5.4-3,7.3c0.3-2.9,1.9-5.5,1.8-8.5l1.2,0.6L69.5,17z"/>
<path class="st121" d="M49.2,27.9c-0.4,1.9,1.1,4.5-1.9,5.4c0-0.2,0.1-0.3,0-0.5c-0.2-1.3-0.7-2.6,0.6-3.7c0.2-1-0.3-2.2,0.6-3.1
	C49.9,26.2,49.6,27,49.2,27.9z"/>
<path class="st122" d="M49.2,27.9c0-0.7,0.1-1.5-0.7-1.9c-0.1-1.7,0.3-3.4,1.2-4.8c0.3-0.2,0.7-0.2,0.9,0.1c0.8,2.3-0.7,4.4-0.8,6.6
	L49.2,27.9z"/>
<path class="st123" d="M50.4,21.2l-0.7,0c0.2-0.8-0.2-1.8,0.7-2.5c0.2,0.6,0.4,1.3,0.6,1.9c0.1,0.1,0.2,0.3,0.2,0.5
	c0,0.2,0,0.3-0.1,0.3C50.8,21.5,50.5,21.4,50.4,21.2z"/>
<path class="st62" d="M51,21.2c0-0.2,0-0.4,0-0.6c1.4-2,0.8-4.7,2.4-6.7c-0.3,3.3-1.1,6.6-2.4,9.7C50.6,22.9,50.6,22,51,21.2z"/>
<path class="st63" d="M51,21.2c0,0.8,0,1.6,0,2.4c-0.6,2-0.2,4.2-1.2,6.1c0-0.6,0-1.2,0-1.8c0.2-2.2,0.4-4.4,0.6-6.7L51,21.2z"/>
<path class="st38" d="M47.4,35.8c-0.4,0.8-1,1.4-1.8,1.8c-0.5,0.1-1-0.2-1.2-0.6L47.4,35.8z"/>
<path class="st38" d="M38.4,51.5C38,49.3,39,47.2,39,45s2.3-0.1,3-1.3c1.1,1.6,0,3-0.4,4.5c-0.3,1.2-1.2,2.3-1.4,3.6
	c-0.8,3.3-1.1,6.6-1,10c-0.1,1.4,0.5,2.8,1.7,3.6c0.2,0.3,0.3,0.7,0.2,1c-1.8,4.5-0.8,9.2-0.8,13.7c0.1,12.5-0.7,25-0.8,37.5
	c-0.1,11.9-0.5,23.8-0.5,35.7c0,1.7-0.3,3.4-0.3,5.1c0,2.2-0.1,4.4,0.9,6.5l0,0c-1.6,0.5-3.2,0.5-4.8,0c2.2-1.2,2.2-3.4,1.7-5.3
	c-1-3.7,0.1-7.2,0.3-10.8c0.6-11.3,0.6-22.7,0-34.1c-0.3-4.5,0.7-9,0.5-13.5c0.6-1,0.3-2.2,0.3-3.3c0.1-9.5-0.2-18.9,0.6-28.4
	c0.2-1,0.1-2.1-0.3-3C37.7,61.6,37.1,56.5,38.4,51.5z"/>
<path class="st76" d="M30,166.1h-1.2l-0.6-1.2c2.5-1.3,3.1-3.3,2.5-6c-0.9-3.9,0.3-7.8,0.6-11.7c0.1-1.2,0.1-2.4,0.3-3.6
	c0.3-1.7-0.7-1.9-1.9-2.1c0.5-7,1.5-14,2.4-20.9c0.3-2.1,0.2-4.2,0.6-6.3c0.2-1,0-2,0.9-2.8c2,0.5,1.9,2.2,1.8,3.7
	c-0.7,7.9-0.5,15.9-1,23.8c-0.5,7.2-0.2,14.5-0.1,21.8c0,1.8-0.3,3.2-1.8,4.1L30,166.1z"/>
<path class="st110" d="M33.6,111.5c-0.1,5.7-1.5,11.3-2.1,16.9c-0.5,4.5-1,8.9-1.5,13.4c0.4,0.5,0.6,1.1,0.5,1.8
	c-0.3,1.5-0.4,3.1-0.4,4.6c0,0.3-0.1,0.6-0.2,0.9c-0.3,1.3-0.5,2.7-0.4,4c0,0.5-0.2,0.9-0.5,1.3c-0.2,0.2-0.6,0.3-0.8,0.1
	c0,0,0,0,0,0l0,0c-0.5-2-0.5-4.1,0-6.1v-0.6c0.8-1.5-0.2-3.3,0.6-4.9c0-0.4,0-0.8,0-1.2c1.1-1.3,0.4-2.8,0.6-4.2
	c0.9-4.6,1.5-9.3,1.8-13.9c0-2.8,1-5.6,0.6-8.5c-0.2-2.3,0.1-4.5,0-6.7c0.7-7.3,0.9-14.6,1.2-21.8c0.1-3.2-1.3-6-2.6-8.8
	c-0.9-2.1-2.4-3.8-3.6-5.7c-0.6-0.9-1.5-1.6-1.1-2.9c1.6-0.7,2.1,0.5,2.6,1.7c-0.1,1.3,1.5,1.3,1.8,2.4c0.7,2.7,3.2,4.4,3.6,7.3
	c1.2,5.5,1.6,11.1,1.1,16.7C34.3,102,33.7,106.8,33.6,111.5z"/>
<path class="st110" d="M37.8,66.7c1.3,3.2,0.8,6.6,0.5,9.8c-0.8,7.2-0.2,14.4-0.5,21.7c0,1.1,0.4,2.2-0.6,3.1
	C37.4,89.7,36.7,78.2,37.8,66.7z"/>
<path class="st124" d="M34.8,164.9h4.8c-2.3,1-4.9,1-7.2,0H34.8z"/>
<path class="st125" d="M28.2,70.9l-2.4-1.8c-2.3-0.8-4-3-4.2-5.5c0-0.6,0-1.2,0-1.8l1.8,2.4c0.7,1.2,2.2,1.6,3,2.8
	c1,1.3,1.6,1,1.9-0.5c0.5-2.6,0.5-5.2,0-7.8c-0.1-0.6-0.5-1.1-0.1-1.7c2.2-1.3,2.8-0.5,3.1,1.9c0.5,4.3,0.2,8.6-1,12.8
	C29.5,71.9,28.9,71.2,28.2,70.9z"/>
<path class="st126" d="M28.2,57c2.4,3.9,1,7.9,0.5,11.9c-0.1,0.9-0.9,0.7-1.4,0.2s-1-1.2-1.5-1.8c0.3-3.3,1.3-6.6-0.6-9.7L24.6,57
	L28.2,57z"/>
<path class="st75" d="M39.6,164.9c-2.7-2.1-2-5.1-1.7-7.7c0.4-3.4,0.5-6.8,0.5-10.2c0.1-7.3-0.3-14.5,0.1-21.8
	c0.5-8.6,0-17.1,0.6-25.6s0.5-17.2,0.4-25.8c0-2.8,0.4-5.5,1.3-8.2c0.1-0.2,0.3-0.2,0.5-0.1c0,0,0.1,0.1,0.1,0.1
	c-1.1,6.6-0.5,13.3-0.6,19.9c-0.1,16.6-0.6,33.3-0.8,49.9c-0.1,8.4-0.1,16.9-0.4,25.4c-0.2,1.5,0.3,3,1.2,4.2L39.6,164.9z"/>
<path class="st38" d="M41.4,65.5h-0.6c-1.3-2.5,0.3-5-0.2-7.5c0.1-2,0.5-3.9,1.3-5.7c0.9-1.8,1.3-3.8,2.3-5.5c0.2-0.2,0.6-0.2,0.8,0
	c0,0.2,0,0.4,0,0.6c-0.2,1.6-0.4,3.2-0.6,4.8h-0.6c-1.2,1.9-1.8,4.2-1.8,6.4C42.1,60.9,41.9,63.2,41.4,65.5z"/>
<path class="st127" d="M45.6,50.9C44.4,66.3,45.2,81.6,45,97c-0.4,1.6-0.6,3.2-0.6,4.8c0,9.4,0.5,18.8-0.1,28.2
	c-0.7,10.2-0.2,20.4-0.5,30.5c-0.2,1.3,0,2.6,0.6,3.8c-1.5,0.1-1.8-0.7-1.8-2.1c0.3-9.7-0.4-19.3,0.5-29c0.6-6.6,0-13.3,0.2-20
	c0.5-16.9,0.6-33.9,0.6-50.8c0-3,0.7-6,0.5-9C45.3,52.8,44.6,51.4,45.6,50.9z"/>
<path class="st128" d="M30,143.7v-1.8c0.9-0.3,0.3-2.4,1.8-1.9c1,0.3,0.6,1.6,0.6,2.4c-0.1,3.6-0.4,7.2-1,10.7
	c-0.3,2.1-0.2,4.2,0.2,6.2c0.9,3.9,0,5.3-3.4,5.6c-0.9-2.3-0.9-4.9,0-7.3c0.8-0.9-0.1-2.1,0.6-3v-1.2c0.8-1.3-0.2-2.9,0.6-4.2v-0.6
	C30.2,147,29.2,145.2,30,143.7z"/>
<path class="st102" d="M28.2,148.5c0,2,0,4,0,6.1c-0.7-0.4-0.6-1.2-0.6-1.8c0-1.4,0-2.8,0-4.2L28.2,148.5z"/>
<path class="st76" d="M28.8,154.6c-0.1,1,0.4,2.2-0.6,3v-3H28.8z"/>
<path class="st102" d="M28.8,143.1c-0.3,1.6,0.6,3.4-0.6,4.9v-3.1c0-0.6,0-1.2,0-1.8H28.8L28.8,143.1z"/>
<path class="st129" d="M30.6,77c2,2.6,2.6,5.7,2.8,8.7c0.5,7.6,0.2,15.3-1,22.8c-0.2,0.2-0.5,0.2-0.7,0c0,0-0.1-0.1-0.1-0.1
	c-0.1-1-0.1-2-0.1-2.9c-0.1-1.8,0.2-3.6-0.2-5.3l-0.1-1.2c0.5-2.6,0.5-5.3,0-7.9c0-0.2,0.1-0.4,0.1-0.7c1.7-3,1.3-6-0.1-9
	c-1.3-1-1.8-2.6-1.4-4.2C30,76.9,30.3,76.8,30.6,77C30.6,77,30.6,77,30.6,77z"/>
<path class="st130" d="M31.3,100.1c1,1.7,0.3,3.6,0.5,5.4c-0.2,0.3-0.4,0.3-0.6,0c0-0.6,0-1.2-0.1-1.8L31.3,100.1z"/>
<path class="st100" d="M31.2,105.5h0.6v3c0.4,0.7,0.5,1.3-0.6,1.2l-0.1-0.1C31.1,108.3,31.2,106.9,31.2,105.5z"/>
<path class="st122" d="M31.2,109.7c0.4-0.3,0.6-0.7,0.6-1.2h0.6c0,2.2,0.2,4.5-0.6,6.7h-0.6V109.7z"/>
<path class="st131" d="M20.4,64.9H21c2.2,1.2,3.1,3.3,4.2,5.4c0.4,1,1.3,1.8,1.5,2.9s0.8,2.2-0.9,2.6c-2.3-2.2-4.3-4.7-6-7.3
	c-0.5-1.6,1.5,0.4,1.2-0.8C20.8,66.7,19.9,66,20.4,64.9z"/>
<path class="st132" d="M30,77l1.2,4.2c0,0.8,0.1,1.7-1.1,1.8c-0.8-1.6-1.7-3.2-2.5-4.8c1.1-1.5-1.1-2.9,0-4.4
	C29.4,74.1,29.5,75.7,30,77z"/>
<path class="st133" d="M20.4,64.9l2.5,4.9c-1.6,0.4-1.6-1.9-3-1.3l-1.8-3c-0.4-0.9-1.5-2.2-0.5-2.8s1.6,0.9,2.3,1.6L20.4,64.9z"/>
<path class="st134" d="M27.6,74c0.2,0.8,0.6,1.6,0.9,2.4c0.6,1.2-0.2,1.4-0.9,1.8c-1-0.5-1.3-1.5-1.8-2.4c1.7-2.3-1.2-3.6-1.2-5.5
	C26.6,70.6,27.2,72.2,27.6,74z"/>
<path class="st135" d="M27.6,74c-1-1.3-1.5-2.9-3-3.7c-1-2-2.2-3.8-3.6-5.5c0-0.4,0-0.8,0-1.2h0.6c1.4,1.8,2.8,3.7,4.2,5.5
	c1,3,4,4.8,4.8,7.9H30C28.9,76.2,29,74.5,27.6,74z"/>
<path class="st136" d="M42.6,52.1c-0.3,1.8-1.5,3.5-1.2,5.5c-0.6,0.9-0.2,2-0.3,2.9c-0.1,0.7,0,1.5-1,1.5c-0.7,0-1.3-0.6-1.3-1.3
	c0,0,0,0,0,0c-0.2-1.3-0.2-2.6,0-3.9c0.4-1.7,0.4-3.5,0.8-5.3c0.4-2.8,2.4-5,2.4-7.9c0.7-0.6,1.2-1.5,1.2-2.4
	c0.5-0.6,0.9-1.3,1.8-0.6c0,2,0,4,0,6h-0.6c-0.4,0-0.7-1.9-1.3-0.2s-1,3.3-1.6,4.9C40.8,53.5,42.5,51.5,42.6,52.1z"/>
<path class="st38" d="M45,40.6l-1.8,0.6c0-0.7,0.2-1.4,1-1.6S44.9,40.1,45,40.6z"/>
<path class="st88" d="M49.2,54h-0.6c-0.1-1.5,0.3-3,1.2-4.2V51C50.5,52.1,49.7,53,49.2,54z"/>
<path class="st45" d="M49.2,54l0.6-3h0.6c-0.1,2.1-0.5,4.1-1.2,6V54z"/>
<path class="st53" d="M25.2,57.6c0.4,0.1,0.9,0,1.1,0.2c1.3,1.2,0.9,8.2-0.5,9.5c-0.8-1-2.4-1.4-2.4-3c1.4,0.7,1.8-0.2,1.8-1.3
	C25.2,61.1,25.2,59.4,25.2,57.6z"/>
<path class="st137" d="M39.6,51.5c-0.2,2.6-0.4,5.3-0.6,7.9c0,0.8-0.1,2.1,1.1,2c1-0.1,0.5-1.3,0.6-2s0-1.4,0.6-1.9
	c0.3,2.7-0.3,5.3-0.6,7.9c-1.2,0-2.3-0.2-2.3-1.7C38.4,59.7,38,55.5,39.6,51.5z"/>
<path class="st76" d="M30,143.7c-0.3,1.6,0.6,3.4-0.6,4.9C29.6,146.9,28.8,145.2,30,143.7z"/>
<path class="st76" d="M29.4,149.1c-0.2,1.4,0.5,3-0.6,4.2C29,152,28.2,150.4,29.4,149.1z"/>
<path class="st138" d="M42.6,52.1l-1.8,1.4c0-3.7,1.4-6.6,2.7-10c1.2,1.2,0.7,2.2,0.8,3.1C44.2,48.6,43.6,50.5,42.6,52.1z"/>
</svg>
