<?xml version="1.0" encoding="utf-8"?>
<!-- Generator: Adobe Illustrator 24.1.2, SVG Export Plug-In . SVG Version: 6.00 Build 0)  -->
<svg version="1.1" id="Layer_1" xmlns="http://www.w3.org/2000/svg" xmlns:xlink="http://www.w3.org/1999/xlink" x="0px" y="0px"
	 viewBox="0 0 595.3 272.1" style="enable-background:new 0 0 595.3 272.1;" xml:space="preserve">
<style type="text/css">
	.st0{fill:#363636;}
	.st1{clip-path:url(#SVGID_3_);fill:#363636;}
	.st2{fill:#007359;stroke:#95A5A6;stroke-miterlimit:10;}
	.st3{fill:#020100;stroke:#95A5A6;stroke-miterlimit:10;}
	.st4{fill:#E67E22;}
	.st5{fill:#27AE60;}
	.st6{fill:#BDC3C7;}
	.st7{fill:#C42662;}
	.st8{fill:#8E44AD;}
	.st9{fill:#00699B;}
	.st10{fill:#C5C600;}
	.st11{fill:#2C3E50;}
	.st12{fill:#005C4D;}
	.st13{fill:#FFFFFF;}
	.st14{fill:#FFFB6E;}
</style>
<g>
	<g>
		<g>
			<g>
				<rect id="SVGID_1_" x="-0.6" y="0" class="st0" width="595.2" height="272.1"/>
			</g>
			<g>
				<g>
					<g>
						<g>
							<defs>
								<rect id="SVGID_2_" x="-0.6" y="0" width="595.2" height="272.1"/>
							</defs>
							<clipPath id="SVGID_3_">
								<use xlink:href="#SVGID_2_"  style="overflow:visible;"/>
							</clipPath>
							<rect x="-0.6" y="0" class="st1" width="595.2" height="272.1"/>
						</g>
					</g>
				</g>
			</g>
		</g>
	</g>
</g>
<g>
	<g>
		<path class="st2" d="M227.7,207.5h141.1l2.7,37.3h14.7v-57.6v-20.3h-20.3H230.3H210v77.9h15.2L227.7,207.5z M229,187.1h138.3
			l0.7,10.2H228.3L229,187.1z"/>
		<polygon class="st3" points="209.9,163.4 386,163.4 392.8,153.3 203.1,153.3 		"/>
	</g>
</g>
<g>
	<polygon class="st4" points="0.1,0 0.1,3.8 14.8,3.8 14.8,18.4 23.2,14.6 31.5,18.4 31.5,3.8 44.1,3.8 44.1,18.4 52.6,14.6 
		60.8,18.4 60.8,3.8 75.2,3.8 75.2,0 	"/>
	<polygon class="st4" points="0.1,40.3 8.6,36.6 16.8,40.3 16.8,25.7 29.4,25.7 29.4,40.3 37.9,36.6 46.1,40.3 46.1,25.7 58.5,25.7 
		58.5,40.3 67,36.6 75.2,40.3 75.2,21.9 0.1,21.9 	"/>
</g>
<g>
	<polygon class="st5" points="300.5,0 300.5,3.8 315.2,3.8 315.2,18.4 323.7,14.6 331.9,18.4 331.9,3.8 344.5,3.8 344.5,18.4 
		353,14.6 361.2,18.4 361.2,3.8 375.7,3.8 375.7,0 	"/>
	<polygon class="st5" points="300.5,40.3 309,36.6 317.2,40.3 317.2,25.7 329.9,25.7 329.9,40.3 338.3,36.6 346.6,40.3 346.6,25.7 
		359,25.7 359,40.3 367.4,36.6 375.7,40.3 375.7,21.9 300.5,21.9 	"/>
</g>
<g>
	<polygon class="st6" points="225.4,0 225.4,3.8 240.1,3.8 240.1,18.4 248.6,14.6 256.8,18.4 256.8,3.8 269.4,3.8 269.4,18.4 
		277.9,14.6 286.1,18.4 286.1,3.8 300.5,3.8 300.5,0 	"/>
	<polygon class="st6" points="225.4,40.3 233.9,36.6 242.1,40.3 242.1,25.7 254.8,25.7 254.8,40.3 263.2,36.6 271.5,40.3 
		271.5,25.7 283.9,25.7 283.9,40.3 292.3,36.6 300.5,40.3 300.5,21.9 225.4,21.9 	"/>
</g>
<g>
	<polygon class="st7" points="150.3,0 150.3,3.8 165,3.8 165,18.4 173.5,14.6 181.7,18.4 181.7,3.8 194.3,3.8 194.3,18.4 
		202.8,14.6 211,18.4 211,3.8 225.4,3.8 225.4,0 	"/>
	<polygon class="st7" points="150.3,40.3 158.8,36.6 167,40.3 167,25.7 179.7,25.7 179.7,40.3 188.1,36.6 196.3,40.3 196.3,25.7 
		208.7,25.7 208.7,40.3 217.2,36.6 225.4,40.3 225.4,21.9 150.3,21.9 	"/>
</g>
<g>
	<polygon class="st8" points="75.2,0 75.2,3.8 89.9,3.8 89.9,18.4 98.4,14.6 106.6,18.4 106.6,3.8 119.2,3.8 119.2,18.4 127.7,14.6 
		135.9,18.4 135.9,3.8 150.3,3.8 150.3,0 	"/>
	<polygon class="st8" points="75.2,40.3 83.7,36.6 91.9,40.3 91.9,25.7 104.6,25.7 104.6,40.3 113,36.6 121.2,40.3 121.2,25.7 
		133.6,25.7 133.6,40.3 142.1,36.6 150.3,40.3 150.3,21.9 75.2,21.9 	"/>
</g>
<g>
	<polygon class="st9" points="525.9,0 525.9,3.8 540.5,3.8 540.5,18.4 549,14.6 557.2,18.4 557.2,3.8 569.9,3.8 569.9,18.4 
		578.3,14.6 586.6,18.4 586.6,3.8 601,3.8 601,0 	"/>
	<polygon class="st9" points="525.9,40.3 534.3,36.6 542.6,40.3 542.6,25.7 555.2,25.7 555.2,40.3 563.7,36.6 571.9,40.3 
		571.9,25.7 584.3,25.7 584.3,40.3 592.8,36.6 601,40.3 601,21.9 525.9,21.9 	"/>
</g>
<g>
	<polygon class="st10" points="450.8,0 450.8,3.8 465.4,3.8 465.4,18.4 473.9,14.6 482.1,18.4 482.1,3.8 494.8,3.8 494.8,18.4 
		503.2,14.6 511.5,18.4 511.5,3.8 525.9,3.8 525.9,0 	"/>
	<polygon class="st10" points="450.8,40.3 459.2,36.6 467.5,40.3 467.5,25.7 480.1,25.7 480.1,40.3 488.6,36.6 496.8,40.3 
		496.8,25.7 509.2,25.7 509.2,40.3 517.7,36.6 525.9,40.3 525.9,21.9 450.8,21.9 	"/>
</g>
<g>
	<polygon class="st11" points="375.7,0 375.7,3.8 390.3,3.8 390.3,18.4 398.8,14.6 407,18.4 407,3.8 419.7,3.8 419.7,18.4 
		428.1,14.6 436.3,18.4 436.3,3.8 450.8,3.8 450.8,0 	"/>
	<polygon class="st11" points="375.7,40.3 384.1,36.6 392.3,40.3 392.3,25.7 405,25.7 405,40.3 413.5,36.6 421.7,40.3 421.7,25.7 
		434.1,25.7 434.1,40.3 442.5,36.6 450.8,40.3 450.8,21.9 375.7,21.9 	"/>
</g>
<path class="st12" d="M364.7,181.5c-0.3-0.4-0.8-0.5-1.3-0.4c-2.2,0.6-6,1.2-12.4,1.2c-4.4,0-8.6,3.4-10.8,6.5
	c-2.2-3.1-6.4-6.4-10.8-6.5c-6.4-0.1-10.2-0.6-12.4-1.2c-0.5-0.1-1,0-1.3,0.4c-0.3,0.4-0.4,0.9-0.2,1.4c0.6,1.6,1.1,3.8,1,6
	c-0.2,4.4,5.7,8,12.6,8c4.8,0,8.9-0.6,11.1-1.9c2.2,1.4,6.3,1.9,11.1,1.9c2.4,0,4.6-0.4,6.6-1.1v29.4c0,1,0.8,1.8,1.7,1.8
	c1,0,1.7-0.8,1.7-1.8v-31.4c1.7-1.4,2.7-3.1,2.7-5c-0.1-2.3,0.4-4.4,1-6C365.1,182.4,365,181.9,364.7,181.5z M328.3,193.7
	c-3.4-0.5-5.9-2.5-5.7-4.6s3.2-3.4,6.6-2.9c3.4,0.5,5.9,2.5,5.7,4.6S331.6,194.2,328.3,193.7z M352.2,193.7
	c-3.4,0.5-6.3-0.9-6.6-2.9s2.3-4.1,5.7-4.6c3.4-0.5,6.3,0.9,6.6,2.9S355.6,193.2,352.2,193.7z"/>
<g>
	<g>
		<path class="st13" d="M172.5,52.1H170c0.1-0.1,0.1-0.2,0.1-0.3c0-0.6-0.9-1.1-2.1-1.1c-1.2,0-2.1,0.5-2.1,1.1
			c0,0.1,0.1,0.2,0.1,0.3h-8c0.1-0.1,0.1-0.2,0.1-0.3c0-0.6-0.9-1.1-2.1-1.1c-1.1,0-2.1,0.5-2.1,1.1c0,0.1,0.1,0.2,0.1,0.3h-8
			c0.1-0.1,0.1-0.2,0.1-0.3c0-0.6-0.9-1.1-2.1-1.1s-2.1,0.5-2.1,1.1c0,0.1,0.1,0.2,0.1,0.3h-8c0.1-0.1,0.1-0.2,0.1-0.3
			c0-0.6-0.9-1.1-2.1-1.1c-1.1,0-2.1,0.5-2.1,1.1c0,0.1,0.1,0.2,0.1,0.3h-8c0.1-0.1,0.1-0.2,0.1-0.3c0-0.6-0.9-1.1-2.1-1.1
			s-2.1,0.5-2.1,1.1c0,0.1,0.1,0.2,0.1,0.3h-2.4c-3.3,0-6,1.3-6,3v28.7c0,1.7,2.7,3,6,3h49.6l12.7-6.4V55.1
			C178.4,53.4,175.8,52.1,172.5,52.1z M175.2,79.7l-0.7,0.4h-5.1c-2.4,0-4.3,1-4.3,2.2v2.6l-0.7,0.4h-48.2c-1.5,0-2.7-0.6-2.7-1.4
			V56.2h61.7L175.2,79.7L175.2,79.7L175.2,79.7z"/>
		<path class="st14" d="M134.4,73.3l9.6,8.9h0c0,0,0,0,0.1,0c0,0,0,0,0,0s0.1,0,0.1,0l0,0l0,0c0,0,0.1,0,0.1,0c0,0,0,0,0,0
			c0,0,0,0,0.1,0h0l9.6-8.9c4.1,0,7.4-2.9,7.4-5.5c0-2.6-3.3-4.6-7.4-4.6c0,0-0.1,0-0.1,0c0.1,0.3,0.1,0.5,0.1,0.8
			c0,0.7-0.2,1.4-0.6,2.1h0.1l0.7-0.7l0.7,0.7l1.6,0.1l-1.2,0.6l0.3,0.8l-1.5-0.4l-1.5,0.4l0.3-0.8l-0.1,0c-0.5,0.6-1.1,1.3-1.8,1.8
			l0.4,0.4l1.6,0.1l-1.2,0.6l0.3,0.8l-1.5-0.4l-1.5,0.4l0.3-0.8l-0.2-0.1c-0.6,0.3-1.2,0.5-1.8,0.7c1.2,1.5,3.3,2.8,5.8,2.9l-9,8.3
			v-12c3.9-0.1,7.1-3,7.1-5.4c0-2.6-3.3-4.6-7.4-4.6c-4.1,0-7.4,2.1-7.4,4.6c0,2.5,3.2,5.3,7.1,5.4v12l-9-8.3
			c2.5-0.2,4.6-1.4,5.8-2.9c-0.7-0.2-1.3-0.4-1.8-0.7l-0.2,0.1l0.3,0.8l-1.5-0.4l-1.5,0.4l0.3-0.8l-1.2-0.6L137,69l0.4-0.4
			c-0.7-0.5-1.4-1.2-1.8-1.8l-0.1,0l0.3,0.8l-1.5-0.4l-1.5,0.4l0.3-0.8l-1.2-0.6l1.6-0.1l0.7-0.7l0.7,0.7h0.1
			c-0.4-0.7-0.6-1.4-0.6-2.1c0-0.3,0.1-0.5,0.1-0.8c0,0-0.1,0-0.1,0c-4.1,0-7.4,2.1-7.4,4.6C127.1,70.3,130.4,73.2,134.4,73.3z
			 M157.2,69l0.7-0.7l0.7,0.7l1.6,0.1l-1.2,0.6l0.3,0.8l-1.5-0.4l-1.5,0.4l0.3-0.8l-1.2-0.6L157.2,69z M147.8,64.2l0.7,0.7l1.6,0.1
			l-1.2,0.6l0.3,0.8l-1.5-0.4l-1.5,0.4l0.3-0.8l-1.2-0.6l1.6-0.1L147.8,64.2z M142.3,66.5l-1.5-0.4l-1.5,0.4l0.3-0.8l-1.2-0.6
			l1.6-0.1l0.7-0.7l0.7,0.7l1.6,0.1l-1.2,0.6L142.3,66.5z M142.9,63.6l0.3-0.8l-1.2-0.6l1.6-0.1l0.7-0.7l0.7,0.7l1.6,0.1l-1.2,0.6
			l0.3,0.8l-1.5-0.4L142.9,63.6z M128.4,69.1L130,69l0.7-0.7l0.7,0.7l1.6,0.1l-1.2,0.6l0.3,0.8l-1.5-0.4l-1.5,0.4l0.3-0.8
			L128.4,69.1z"/>
	</g>
</g>
</svg>
